<?xml version="1.0" encoding="UTF-8" standalone="no"?><!DOCTYPE svg PUBLIC "-//W3C//DTD SVG 1.1//EN" "http://www.w3.org/Graphics/SVG/1.1/DTD/svg11.dtd"><svg width="100%" height="100%" viewBox="0 0 782 490" version="1.1" xmlns="http://www.w3.org/2000/svg" xmlns:xlink="http://www.w3.org/1999/xlink" xml:space="preserve" xmlns:serif="http://www.serif.com/" style="fill-rule:evenodd;clip-rule:evenodd;stroke-linecap:round;stroke-linejoin:round;stroke-miterlimit:1.5;"><rect id="Artboard1" x="0" y="0" width="782" height="490" style="fill:none;"/><path d="M25.273,476.081c49.703,-23.867 247.159,-122.382 288.39,-145.607c41.232,-23.225 236.16,-139.208 236.16,-139.208l8.189,10.971l42.289,-29.525l7.754,16.807l132.998,115.808l7.65,0.014l2.865,-8.211l-20.149,-69.628l-7.194,-10.348l-7.897,-10.051l-127.241,-107.166c0,0 -8.003,-5.636 -10.479,-2.229c-1.836,2.527 -1.476,16.49 -1.476,16.49c0,0 -20.547,-5.853 -29.375,-26.99c-8.828,-21.138 -3.283,-32.54 3.157,-41.737c3.243,-4.63 11.938,-11.273 24.038,-16.159c13.289,-5.365 29.775,-6.324 31.506,-6.26c13.698,0.508 45.451,7.146 46.801,26.739c1.351,19.592 -0.769,26.084 -11.229,45.33c-12.059,22.189 -30.035,27.533 -27.604,26.029l18.173,15.328c0,0 15.301,-14.6 25.614,-32.123c10.312,-17.523 8.829,-38.983 6.166,-46.871c-2.664,-7.889 -12.826,-36.478 -55.431,-38.076c-20.409,-0.766 -59,9.339 -67.103,36.837c-11.176,37.927 24.586,72.817 24.586,72.817l-36.622,28.544l4.624,10.559l4.228,3.209c0,0 -157.536,99.131 -237.226,143.1c-87.52,48.29 -235.707,122.367 -283.372,148.9c-3.095,1.723 -4.228,8.17 -2.616,10.3c1.612,2.13 6.786,3.866 9.826,2.407Z" style="fill:#e53537;stroke:#bf2122;stroke-width:1px;"/><path d="M558.017,202.24l-0.001,0l-8.163,-10.999l-3.558,-14.346l-7.606,-5.486l-2.806,1.864l-6.081,-15.616l20.887,15.758l0.004,0.016l48.686,-34.982l11.468,26.868l-52.83,36.923Z" style="fill:#bf2122;"/><path d="M642.925,93.355c0,0 2.985,-10.129 4.737,-24.308c1.753,-14.179 -11.015,-24.029 -27.747,-29.254c-10.137,-3.164 -53.817,-1.98 -64.12,14.91c-14.293,23.43 21.325,59.614 21.325,59.614c0,0 -15.792,-3.841 -23.721,-16.934c-8.942,-14.766 -15.064,-28.722 -5.138,-47.722c10.616,-20.323 44.653,-31.595 73.159,-24.498c17.236,4.291 29.733,9.848 32.358,26.213c3.24,20.199 -10.853,41.979 -10.853,41.979Z" style="fill:#bf2122;"/></svg>